<svg xmlns="http://www.w3.org/2000/svg" viewBox="0 0 407 253" width="407" height="253"><defs></defs><g transform="matrix(1,0,0,1,-46.396028465,-123.118484016)">
<g>
	<g transform="matrix(1,0,0,1,250,250)">
		<g transform="matrix(2.187627105,0,0,2.187627105,-1.351329177,-1.328053006)">
			<g>
				<path d="M-46.42836015064313,7.270727253295263 C-46.67236065326051,-6.343913329978022 -46.67236065326051,-6.343913329978022 -46.67236065326051,-6.343913329978022 C-46.67236065326051,-6.343913329978022 -21.02804642869887,-10.12958958399031 -21.02804642869887,-10.12958958399031 C-21.02804642869887,-10.12958958399031 -21.29805042435146,-23.968559567814737 -21.29805042435146,-23.968559567814737 C-21.29805042435146,-23.968559567814737 42.70622254076443,-32.58755402751194 42.70622254076443,-32.58755402751194 C42.70622254076443,-32.58755402751194 42.45953903715417,-19.229235406392036 42.45953903715417,-19.229235406392036 C42.45953903715417,-19.229235406392036 68.06950830587812,-22.67822682490987 68.06950830587812,-22.67822682490987 C68.06950830587812,-22.67822682490987 68.17886284871565,-8.64692000213654 68.17886284871565,-8.64692000213654 C68.17886284871565,-8.64692000213654 80.76384140166192,-11.153249830105779 80.76384140166192,-11.153249830105779 C80.76384140166192,-11.153249830105779 80.91851450155445,3.106404536885748 80.91851450155445,3.106404536885748 C80.91851450155445,3.106404536885748 68.35586462037827,4.5157302811712725 68.35586462037827,4.5157302811712725 C68.35586462037827,4.5157302811712725 68.16917352759447,18.34572301996741 68.16917352759447,18.34572301996741 C68.16917352759447,18.34572301996741 42.456868751805814,21.88804726923263 42.456868751805814,21.88804726923263 C42.456868751805814,21.88804726923263 42.456868751805814,36.101696434365294 42.456868751805814,36.101696434365294 C42.456868751805814,36.101696434365294 -21.346395304801263,45.01236234797034 -21.346395304801263,45.01236234797034 C-21.346395304801263,45.01236234797034 -21.339732307074883,31.234376595244612 -21.339732307074883,31.234376595244612 C-21.339732307074883,31.234376595244612 -46.75602959417574,34.954033222929866 -46.75602959417574,34.954033222929866 C-46.75602959417574,34.954033222929866 -46.47236899631298,21.42573186592017 -46.47236899631298,21.42573186592017 C-46.47236899631298,21.42573186592017 -59.75602135283498,22.598724641231456 -59.75602135283498,22.598724641231456 C-59.75602135283498,22.598724641231456 -59.717072471104416,8.768020688920501 -59.717072471104416,8.768020688920501 C-59.717072471104416,8.768020688920501 -46.42836015064313,7.270727253295263 -46.42836015064313,7.270727253295263 Z" fill="#fefefe"/>
			</g>
			<g>
				<path d="M21.363903315786956,-57.39253398886194 C26.75823575751747,-55.45919653407236 30.5952323527963,-53.18253667735098 35.7125417631014,-50.879873327594396 C44.53887752227638,-46.9085359480041 56.56019698511773,-44.129213947921016 64.08785853858535,-38.012887210572444 C73.39484566046485,-30.450562810154224 82.90383351112541,-17.32989958503822 93.5724881416445,-12.203231460369352 C93.63248055247095,-7.881921396765392 93.8391606384339,-2.7002453939203406 93.49248130634987,1.5360733017387247 C90.0391665686966,1.9187379078030062 84.11916938267495,2.4054164860081073 80.91851450155445,3.106404536885748 C80.91851450155445,3.106404536885748 80.76384140166192,-11.153249830105779 80.76384140166192,-11.153249830105779 C76.7745113850815,-10.344255094709297 72.1408542295867,-9.278251752355573 68.17886284871565,-8.64692000213654 C68.17886284871565,-8.64692000213654 68.06950830587812,-22.67822682490987 68.06950830587812,-22.67822682490987 C59.42887181921469,-21.238561552809188 50.97019620557512,-20.516567257191127 42.45953903715417,-19.229235406392036 C42.53855405217655,-23.643573125274997 42.55854304535569,-28.188881982672683 42.70622254076443,-32.58755402751194 C23.07222472522153,-30.10757101497984 -2.441410820649253,-25.557557369111237 -21.29805042435146,-23.968559567814737 C-21.29805042435146,-23.968559567814737 -21.02804642869887,-10.12958958399031 -21.02804642869887,-10.12958958399031 C-27.942381584582108,-9.049242994622546 -40.799703811771906,-7.789249779532838 -46.67236065326051,-6.343913329978022 C-46.67236065326051,-6.343913329978022 -46.42836015064313,7.270727253295263 -46.42836015064313,7.270727253295263 C-46.42836015064313,7.270727253295263 -59.71702247110443,8.768070688920488 -59.71702247110443,8.768070688920488 C-59.701013474658794,13.314066191122038 -59.609689715744935,18.07238752545163 -59.75602135283498,22.598724641231456 C-59.75602135283498,22.598724641231456 -46.47236899631298,21.42573186592017 -46.47236899631298,21.42573186592017 C-46.47236899631298,21.42573186592017 -46.75602959417574,34.954033222929866 -46.75602959417574,34.954033222929866 C-38.46603972068533,33.65937716088956 -29.634045499700733,32.12571784452666 -21.339732307074883,31.234376595244612 C-21.339732307074883,31.234376595244612 -21.346395304801263,45.01236234797034 -21.346395304801263,45.01236234797034 C-2.6860852524259826,41.997025270025915 23.932895839931007,37.99836197037075 42.49753338296796,36.342378153764 C42.49753338296796,36.342378153764 42.4772137830314,49.853360802942916 42.4772137830314,49.853360802942916 C24.883568286524678,52.828033249725195 6.700578097990729,54.53302316029658 -11.063736779209648,57.46634433111285 C-14.55738554126765,57.841354119178504 -18.345070867113463,58.32935512441327 -21.817052170916213,58.60668333130707 C-26.036052158744496,56.238674284382796 -31.742375654319403,52.941024466894305 -36.11004695782867,51.16836189620881 C-43.975703058175895,47.97602304660177 -52.46302701891,46.64670413761087 -59.58235108003555,41.61036795158361 C-71.53433213333119,33.15504926809626 -79.53833444601241,20.28572347248337 -92.4529787986803,13.248733209598868 C-92.04765491408853,8.624078730421388 -91.77265367014115,3.9890737166078907 -91.6279877824827,-0.6512464366132917 C-87.45832449537647,-1.1535906888620957 -83.27965853195292,-1.5775811396033532 -79.09432957080298,-1.9229126133686805 C-79.24166574380979,-6.178915126738502 -79.27532405484362,-11.396245796806397 -79.62566549254825,-15.561916371534608 C-74.98333626749354,-16.066574871085322 -70.35800785915671,-16.719574079559607 -65.75700447877898,-17.51989674539618 C-65.75700447877898,-17.51989674539618 -66.91800640131169,-30.48255537175646 -66.91800640131169,-30.48255537175646 C-58.08235007470648,-32.19288585302456 -49.286366558991176,-33.300876253570095 -40.61603904238291,-34.93954136234606 C-40.61603904238291,-34.93954136234606 -40.976031654275175,-47.997541891287256 -40.976031654275175,-47.997541891287256 C-21.319387275849294,-51.98220526633031 2.5962477924076666,-53.212863489521624 21.363903315786956,-57.39253398886194 C21.363903315786956,-57.39253398886194 21.363903315786956,-57.39253398886194 21.363903315786956,-57.39253398886194 Z" fill="#000000"/>
			</g>
		</g>
		<g transform="matrix(2.187627105,0,0,2.187627105,-1.351329177,-1.328053006)">
			<g>
				<path d="M4.245263435819652,0.29540786631332594 C4.245263435819652,0.29540786631332594 4.410261639059172,13.620742105558747 4.410261639059172,13.620742105558747 C8.537251223169733,12.971735609462485 12.626577068223924,12.624064457106215 16.78090528804387,12.234406246558137 C17.40656586080877,16.39638928437671 17.36557062288921,21.23138595513774 17.44422959986514,25.48672725499273 C12.285238306836618,26.5713717322069 8.292907398150419,27.201711662153684 3.111918040109231,27.897715180381056 C1.7029229025811219,28.2987157458374 -6.6014102179233305,29.209715381541173 -8.553414238862388,29.456704060619813 C-8.119403860242528,21.212719388988262 -8.439736376889414,10.305392110903995 -8.441414841965525,1.8633994228694064 C-4.58275078843144,1.1047332084672234 0.26458005751010205,0.718406496782336 4.245263435819652,0.29540786631332594 C4.245263435819652,0.29540786631332594 4.245263435819652,0.29540786631332594 4.245263435819652,0.29540786631332594 Z" fill="#000000"/>
			</g>
		</g>
		<g transform="matrix(2.187627105,0,0,2.187627105,-1.351329177,-1.328053006)">
			<g>
				<path d="M4.029911280296801,-13.884239665383575 C11.183910904017466,-14.671566942524805 22.68124408764379,-15.827571616762725 29.629224838916343,-17.416569418059225 C29.5992159178586,-13.235563776044728 29.642550834369104,-9.054583565319263 29.75922958844785,-4.87492578162346 C29.67388218245651,-0.7886008286750439 29.298236612165056,6.7744102165470395 29.635887836642723,10.591722994115116 C25.721224084660207,11.02540276597756 20.852225780463414,11.700730646221928 16.999563511140877,11.898077449110133 C16.999563511140877,11.898077449110133 16.8645742289591,-1.9979094847240049 16.8645742289591,-1.9979094847240049 C16.8645742289591,-1.9979094847240049 4.245263435819652,0.29540786631332594 4.245263435819652,0.29540786631332594 C4.245263435819652,0.29540786631332594 4.029911280296801,-13.884239665383575 4.029911280296801,-13.884239665383575 C4.029911280296801,-13.884239665383575 4.029911280296801,-13.884239665383575 4.029911280296801,-13.884239665383575 Z" fill="#000000"/>
			</g>
		</g>
		<g transform="matrix(2.187627105,0,0,2.187627105,-1.351329177,-1.328053006)">
			<g>
				<path d="M68.16917352759447,18.34572301996741 C67.51584371236277,22.320048576018962 67.79652884940879,27.94771309461794 67.86585454330998,32.09670074374117 C60.27186818804694,33.80937090360021 50.37820665948857,34.97470886091287 42.51253784349683,36.101696434365294 C42.51253784349683,36.101696434365294 42.456868751805814,21.88804726923263 42.456868751805814,21.88804726923263 C50.76153247906768,21.290386545691945 59.87185944286284,19.655052935779167 68.16917352759447,18.34572301996741 C68.16917352759447,18.34572301996741 68.16917352759447,18.34572301996741 68.16917352759447,18.34572301996741 Z" fill="#000000"/>
			</g>
		</g>
		<g transform="matrix(2.187627105,0,0,2.187627105,-1.351329177,-1.328053006)">
			<g>
				<path d="M80.91851450155445,3.106404536885748 C80.91851450155445,3.106404536885748 80.92184600041764,17.140381645007437 80.92184600041764,17.140381645007437 C77.46385190558249,17.522385037556887 71.43785710687553,18.357726588390506 68.16917352759447,18.34572301996741 C67.99852957818985,14.008060637515882 68.24818854261684,8.912062647419589 68.35586462037827,4.5157302811712725 C72.1048435243174,4.309075626497361 77.09316543665227,3.5657444793814648 80.91851450155445,3.106404536885748 C80.91851450155445,3.106404536885748 80.91851450155445,3.106404536885748 80.91851450155445,3.106404536885748 Z" fill="#000000"/>
			</g>
		</g>
	</g>
	<g transform="matrix(1,0,0,1,250,250)">
		<path d="" fill="#fefefe" stroke="#000000" stroke-width="2"/>
	</g>
</g></g></svg>